<?xml version="1.0" encoding="UTF-8" standalone="no"?><!DOCTYPE svg PUBLIC "-//W3C//DTD SVG 1.1//EN" "http://www.w3.org/Graphics/SVG/1.1/DTD/svg11.dtd"><svg width="100%" height="100%" viewBox="0 0 1428 384" version="1.1" xmlns="http://www.w3.org/2000/svg" xmlns:xlink="http://www.w3.org/1999/xlink" xml:space="preserve" xmlns:serif="http://www.serif.com/" style="fill-rule:evenodd;clip-rule:evenodd;stroke-linejoin:round;stroke-miterlimit:2;"><path d="M949.453,0l-60.09,0l-0,336.07c54.61,1.879 108.99,4.634 163.15,8.245l0,-59.209c-34.26,-2.285 -68.61,-4.222 -103.06,-5.826l-0,-279.28Zm477.55,0.034l-66.01,-0l-43.51,100.851l-39.09,-100.851l-65.02,-0l69.87,180.207l-76.27,176.789c21.1,2.058 42.14,4.254 63.16,6.574l44.36,-102.791l43.93,113.312c22.88,2.942 45.7,6.012 68.48,9.263l0.1,-0.039l-78.28,-201.891l78.28,-181.424Zm-743.913,333.099l60.093,-0.013l-0,-136.704l81.46,-0l0,-59.209l-81.46,0l-0,-77.428l107.659,-0l-0,-59.742l-167.752,-0l-0,333.096Zm-224.399,-273.358l62.893,-0l-0,276.879c19.996,-0.756 40.033,-1.378 60.091,-1.903l0,-274.976l62.89,-0l0,-59.741l-185.874,-0l-0,59.741Zm-205.44,294.087c55.385,-5.033 111.025,-9.181 166.918,-12.4l0,-59.216c-35.711,2.064 -71.321,4.508 -106.827,7.3l-0,-89.641c23.297,-0.232 53.974,-0.943 81.151,-0.605l-0,-59.214c-21.712,-0.053 -56.608,0.303 -81.151,0.617l-0,-80.924l106.827,-0l0,-59.742l-166.918,-0l-0,353.825Zm-117.876,-136.883l-78.265,-216.945l-57.11,-0l0,383.362c19.992,-2.846 40.022,-5.571 60.091,-8.185l0,-208.471l69.591,199.911c21.888,-2.538 43.815,-4.942 65.785,-7.202l-0,-359.415l-60.092,-0l0,216.945Zm966.678,130.901c20.06,1.535 40.09,3.182 60.1,4.962l0,-352.808l-60.1,-0l0,347.846Z" style="fill:#ed1c24;fill-rule:nonzero;"/></svg>