<?xml version="1.0" encoding="UTF-8" standalone="no"?><!DOCTYPE svg PUBLIC "-//W3C//DTD SVG 1.1//EN" "http://www.w3.org/Graphics/SVG/1.1/DTD/svg11.dtd"><svg width="100%" height="100%" viewBox="0 0 384 384" version="1.1" xmlns="http://www.w3.org/2000/svg" xmlns:xlink="http://www.w3.org/1999/xlink" xml:space="preserve" xmlns:serif="http://www.serif.com/" style="fill-rule:evenodd;clip-rule:evenodd;stroke-linejoin:round;stroke-miterlimit:2;"><path d="M376,168l-160,0l0,-160c0,-4.42 -3.58,-8 -8,-8l-32,0c-4.42,0 -8,3.58 -8,8l0,160l-160,0c-4.42,0 -8,3.58 -8,8l0,32c0,4.42 3.58,8 8,8l160,0l0,160c0,4.42 3.58,8 8,8l32,0c4.42,0 8,-3.58 8,-8l0,-160l160,0c4.42,0 8,-3.58 8,-8l0,-32c0,-4.42 -3.58,-8 -8,-8Z" style="fill:#fff;fill-rule:nonzero;"/></svg>