<?xml version="1.0" encoding="UTF-8" standalone="no"?><!DOCTYPE svg PUBLIC "-//W3C//DTD SVG 1.1//EN" "http://www.w3.org/Graphics/SVG/1.1/DTD/svg11.dtd"><svg width="100%" height="100%" viewBox="0 0 320 320" version="1.1" xmlns="http://www.w3.org/2000/svg" xmlns:xlink="http://www.w3.org/1999/xlink" xml:space="preserve" xmlns:serif="http://www.serif.com/" style="fill-rule:evenodd;clip-rule:evenodd;stroke-linejoin:round;stroke-miterlimit:2;"><path d="M193.94,160l123.71,-123.71c3.12,-3.12 3.12,-8.19 -0,-11.31l-22.63,-22.63c-3.12,-3.12 -8.19,-3.12 -11.31,-0l-123.71,123.71l-123.71,-123.72c-3.12,-3.12 -8.19,-3.12 -11.31,-0l-22.64,22.63c-3.12,3.12 -3.12,8.19 -0,11.31l123.72,123.72l-123.72,123.71c-3.12,3.12 -3.12,8.19 -0,11.31l22.63,22.63c3.12,3.12 8.19,3.12 11.31,-0l123.72,-123.71l123.71,123.71c3.12,3.12 8.19,3.12 11.31,-0l22.63,-22.63c3.12,-3.12 3.12,-8.19 0,-11.31l-123.71,-123.71Z" style="fill:#fff;fill-rule:nonzero;"/></svg>